<svg width="192" height="192" viewBox="0 0 192 192" fill="none" xmlns="http://www.w3.org/2000/svg">
<path d="M155.975 78.5066C155.992 78.0013 156 77.4939 156 76.9846C156 52.1317 136.122 31.9846 111.6 31.9846C92.1479 31.9846 75.6175 44.6627 69.6141 62.3108C65.3027 60.0305 60.3999 58.7413 55.2 58.7413C37.9687 58.7413 24 72.8988 24 90.3629C24 107.827 37.9687 121.985 55.2 121.985L111.6 121.985C111.62 121.985 111.64 121.985 111.66 121.985H145.2C157.792 121.985 168 111.639 168 98.8764C168 90.0643 163.133 82.4042 155.975 78.5066Z" fill="white"/>
<path fill-rule="evenodd" clip-rule="evenodd" d="M125.506 130.8C123.405 130.117 121.148 131.267 120.465 133.368L106.836 175.314C106.153 177.415 107.303 179.672 109.404 180.355C111.505 181.037 113.762 179.887 114.445 177.786L128.074 135.84C128.757 133.739 127.607 131.482 125.506 130.8ZM77.362 130.8C75.261 130.117 73.0043 131.267 72.3217 133.368L58.6924 175.314C58.0097 177.415 59.1595 179.672 61.2606 180.355C63.3616 181.037 65.6182 179.888 66.3009 177.787L79.9301 135.84C80.6128 133.739 79.463 131.482 77.362 130.8ZM88.4275 133.368C89.1102 131.267 91.3668 130.117 93.4678 130.8C95.5688 131.482 96.7186 133.739 96.036 135.84L85.7002 167.65C85.0175 169.751 82.7609 170.901 80.6599 170.218C78.5589 169.536 77.4091 167.279 78.0917 165.178L88.4275 133.368ZM141.412 130.8C139.311 130.117 137.055 131.267 136.372 133.368L126.036 165.178C125.354 167.279 126.503 169.536 128.604 170.218C130.705 170.901 132.962 169.751 133.645 167.65L143.981 135.84C144.663 133.739 143.513 131.482 141.412 130.8ZM56.216 133.368C56.8987 131.267 59.1553 130.117 61.2563 130.8C63.3573 131.482 64.5071 133.739 63.8245 135.84L56.7821 157.514C56.0995 159.615 53.8428 160.765 51.7418 160.082C49.6408 159.399 48.491 157.143 49.1737 155.042L56.216 133.368ZM109.573 130.8C107.472 130.117 105.215 131.267 104.532 133.368L97.4901 155.042C96.8074 157.143 97.9572 159.399 100.058 160.082C102.159 160.765 104.416 159.615 105.099 157.514L112.141 135.84C112.824 133.739 111.674 131.482 109.573 130.8Z" fill="#B4F5F2"/>
</svg>
