<svg width="192" height="192" viewBox="0 0 192 192" fill="none" xmlns="http://www.w3.org/2000/svg">
<path fill-rule="evenodd" clip-rule="evenodd" d="M156 76.9846C156 77.4939 155.992 78.0013 155.975 78.5066C163.133 82.4042 168 90.0643 168 98.8764C168 109.983 160.269 119.259 149.964 121.479L157.108 108.156C158.294 106.182 156.872 103.669 154.569 103.669H154.083H147.167C146.468 103.669 145.985 102.97 146.232 102.315L151.88 87.346C152.753 85.1056 151.101 82.6878 148.696 82.6878H148.509H124.217H124.111C122.54 82.6878 121.162 83.7346 120.74 85.2477L110.843 120.769L110.505 121.985L55.2 121.985C37.9687 121.985 24 107.827 24 90.3629C24 72.8988 37.9687 58.7413 55.2 58.7413C60.3999 58.7413 65.3027 60.0305 69.6141 62.3108C75.6175 44.6627 92.1479 31.9846 111.6 31.9846C136.122 31.9846 156 52.1317 156 76.9846Z" fill="white"/>
<path fill-rule="evenodd" clip-rule="evenodd" d="M56.216 133.368C56.8987 131.267 59.1553 130.117 61.2563 130.8C63.3573 131.482 64.5071 133.739 63.8245 135.84L56.7821 157.514C56.0995 159.615 53.8428 160.765 51.7418 160.082C49.6408 159.4 48.491 157.143 49.1737 155.042L56.216 133.368ZM77.3621 130.8C75.261 130.117 73.0044 131.267 72.3218 133.368L58.6925 175.314C58.0098 177.415 59.1596 179.672 61.2606 180.355C63.3617 181.037 65.6183 179.888 66.3009 177.787L79.9302 135.84C80.6129 133.739 79.4631 131.482 77.3621 130.8ZM93.4677 130.8C91.3667 130.117 89.1101 131.267 88.4274 133.368L78.0916 165.178C77.409 167.279 78.5588 169.536 80.6598 170.218C82.7608 170.901 85.0174 169.751 85.7001 167.65L96.0359 135.84C96.7185 133.739 95.5687 131.482 93.4677 130.8ZM109.573 130.8C107.472 130.117 105.215 131.267 104.532 133.368L97.4901 155.042C96.8074 157.143 97.9572 159.4 100.058 160.082C102.159 160.765 104.416 159.615 105.099 157.514L112.141 135.84C112.824 133.739 111.674 131.482 109.573 130.8Z" fill="#B4F5F2"/>
<path fill-rule="evenodd" clip-rule="evenodd" d="M126.184 87.4265C125.46 87.4265 124.826 87.9125 124.638 88.6116L116.23 119.929C115.957 120.945 116.723 121.944 117.775 121.944H129.063C130.018 121.944 130.76 122.775 130.653 123.723L127.633 150.447C127.433 152.217 129.84 152.94 130.649 151.353L151.657 110.1C152.199 109.036 151.426 107.774 150.232 107.774H141.004C139.87 107.774 139.096 106.626 139.521 105.574L145.971 89.6264C146.397 88.5746 145.623 87.4265 144.488 87.4265H126.184Z" fill="#FFF686"/>
</svg>
