<svg width="192" height="192" viewBox="0 0 192 192" fill="none" xmlns="http://www.w3.org/2000/svg">
<path fill-rule="evenodd" clip-rule="evenodd" d="M156 76.5714C156 77.076 155.992 77.5785 155.975 78.079C163.133 81.9395 168 89.5266 168 98.2548C168 110.896 157.792 121.143 145.2 121.143H111.66L111.6 121.143H110.692C111.299 120.721 115.096 118.082 116.097 117.421C118.035 118.747 120.642 118.933 122.814 117.682C125.014 116.416 126.157 114.022 125.936 111.653C127.215 110.903 127.255 110.979 127.255 110.979C130.261 109.248 131.293 105.403 129.555 102.4C127.818 99.3989 123.966 98.363 120.955 100.097C120.955 100.097 120.814 100.206 119.592 100.816C117.657 99.5139 115.071 99.3393 112.914 100.581C110.732 101.838 109.589 104.204 109.787 106.555C108.667 107.224 103.9 110.117 103.9 110.117C103.9 110.117 103.912 103.955 103.966 103.109C106.059 102.088 107.5 99.9438 107.5 97.4634C107.5 94.9535 106.021 92.7859 103.885 91.7797C103.916 90.678 103.9 90.2762 103.9 90.2762C103.9 86.814 101.076 84 97.6 84C94.1254 84 91.3003 86.8084 91.3003 90.2762C91.3003 90.2762 91.3158 90.4086 91.3058 91.7829C89.1741 92.7902 87.7004 94.9546 87.7004 97.4634C87.7004 99.9816 89.1887 102.155 91.3359 103.157C91.2772 104.807 91.3003 110.117 91.3003 110.117C91.3003 110.117 86.6011 107.35 85.4174 106.513C85.5993 104.175 84.4571 101.832 82.2857 100.581C80.1212 99.335 77.5208 99.517 75.5832 100.834C74.36 100.218 74.2449 100.097 74.2449 100.097C71.2384 98.3658 67.3832 99.3975 65.6451 102.4C63.9078 105.401 64.9339 109.245 67.9451 110.979C67.9451 110.979 68.231 110.979 69.2591 111.695C69.0542 114.05 70.1973 116.422 72.3861 117.682C74.5671 118.938 77.1906 118.744 79.1327 117.4C79.729 117.88 84.5671 120.705 85.3193 121.143L55.2 121.143C37.9687 121.143 24 107.12 24 89.8224C24 72.5246 37.9687 58.5019 55.2 58.5019C60.3999 58.5019 65.3027 59.7789 69.6141 62.0375C75.6175 44.5574 92.1479 32 111.6 32C136.122 32 156 51.9553 156 76.5714Z" fill="white"/>
<path fill-rule="evenodd" clip-rule="evenodd" d="M94.9848 140.695V100.734H94.1159C92.6698 100.734 91.4976 99.5639 91.4976 98.1275C91.4976 96.6881 92.6679 95.5213 94.1159 95.5213H94.9848V91.1712C94.9848 89.7354 96.1586 88.5715 97.6001 88.5715C99.0446 88.5715 100.216 89.7421 100.216 91.1712V95.5213H101.084C102.53 95.5213 103.703 96.691 103.703 98.1275C103.703 99.5668 102.532 100.734 101.084 100.734H100.216V140.695H101.084C102.53 140.695 103.703 141.865 103.703 143.301C103.703 144.741 102.532 145.907 101.084 145.907H100.216V150.257C100.216 151.693 99.0416 152.857 97.6001 152.857C96.1557 152.857 94.9848 151.687 94.9848 150.257V145.907H94.1159C92.6698 145.907 91.4976 144.738 91.4976 143.301C91.4976 141.862 92.6679 140.695 94.1159 140.695H94.9848Z" fill="white"/>
<path fill-rule="evenodd" clip-rule="evenodd" d="M81.543 108.467L116.273 128.448L116.707 127.698C117.43 126.45 119.033 126.023 120.281 126.741C121.532 127.461 121.961 129.054 121.237 130.304L120.803 131.054L124.583 133.229C125.831 133.947 126.256 135.542 125.535 136.786C124.813 138.032 123.21 138.457 121.968 137.743L118.187 135.568L117.753 136.318C117.03 137.566 115.427 137.992 114.179 137.274C112.928 136.554 112.499 134.961 113.223 133.711L113.657 132.962L78.9276 112.981L78.4932 113.731C77.7702 114.979 76.1674 115.405 74.919 114.687C73.6681 113.968 73.2392 112.374 73.9632 111.125L74.3976 110.375L70.617 108.2C69.3692 107.482 68.9446 105.887 69.6654 104.643C70.3876 103.396 71.9905 102.971 73.2324 103.686L77.013 105.861L77.4475 105.111C78.1705 103.863 79.7732 103.436 81.0216 104.155C82.2725 104.874 82.7014 106.468 81.9774 107.717L81.543 108.467Z" fill="white"/>
<path fill-rule="evenodd" clip-rule="evenodd" d="M116.273 112.981L81.5429 132.962L81.9774 133.712C82.7004 134.959 82.2699 136.556 81.0215 137.274C79.7706 137.994 78.1714 137.567 77.4474 136.318L77.013 135.568L73.2324 137.743C71.9846 138.461 70.3861 138.03 69.6653 136.786C68.9431 135.539 69.3751 133.943 70.617 133.229L74.3976 131.054L73.9632 130.304C73.2401 129.056 73.6706 127.46 74.919 126.741C76.1699 126.022 77.7691 126.448 78.4931 127.698L78.9276 128.448L113.657 108.467L113.223 107.717C112.5 106.469 112.93 104.873 114.179 104.155C115.43 103.435 117.029 103.861 117.753 105.111L118.187 105.861L121.968 103.686C123.216 102.968 124.814 103.399 125.535 104.643C126.257 105.889 125.825 107.485 124.583 108.2L120.803 110.375L121.237 111.125C121.96 112.373 121.53 113.969 120.281 114.687C119.03 115.407 117.431 114.98 116.707 113.731L116.273 112.981Z" fill="white"/>
</svg>
